<?xml version="1.0" encoding="utf-8"?>
<!-- Generator: Adobe Illustrator 28.0.0, SVG Export Plug-In . SVG Version: 6.00 Build 0)  -->
<svg version="1.1" id="Слой_1" xmlns="http://www.w3.org/2000/svg" xmlns:xlink="http://www.w3.org/1999/xlink" x="0px" y="0px"
	 viewBox="0 0 1000 332.3562927" enable-background="new 0 0 1000 332.3562927" xml:space="preserve">
<path fill="#002F6C" d="M512.7114868,246.3158112c-5.7424011-3.3510895-11.2407837-4.0668488-14.364624-4.0668488
	c-6.702179,0-12.9163513,2.3913116-20.8222656,8.8656464v79.0128326h-32.3243713V216.2526703h27.0861511l3.8066711,12.3636017
	c10.3134155-9.0934906,19.1467285-14.36409,31.1200562-14.36409c5.4983826,0,12.2173157,1.6755371,17.2277527,5.2705994
	L512.7114868,246.3158112z M846.0374146,330.1112671V163.0736542l-32.5510864,8.7194061v158.3182068H846.0374146z
	 M690.1451416,299.5439453c-4.3131104,2.6515198-11.4998169,5.7424011-18.4320679,5.7424011
	c-7.4352417,0-10.7713013-4.0668335-10.7713013-12.4283752v-47.3232727h28.7466431l6.880249-25.7031555h-35.6268921v-38.1153412
	l-32.3370972,8.6708221v29.444519h-20.8256836v25.7031555h20.675354v59.5076599
	c0,15.3244019,8.053894,27.2971802,29.1224976,27.2971802c11.22229,0,28.0123901-3.3510742,40.9287109-12.6885376
	L690.1451416,299.5439453z M559.9532471,332.3562927c-19.3912354,0-33.999939-4.5553894-44.7850952-11.2575684l10.069458-23.4581299
	c9.5657959,6.6859741,20.8389282,10.5250244,31.6085205,10.5250244c11.0130005,0,17.9597168-3.5788574,17.9597168-10.2972107
	c0-17.9597168-52.4475708-10.7695923-52.4475708-49.0635681c0-20.8390198,16.7559204-34.715683,44.2809448-34.715683
	c15.098938,0,25.6389771,2.1473236,34.9591064,5.7423859v26.8097839
	c-10.2798462-4.0836334-21.2940063-7.6625061-33.4951782-7.6625061c-9.3374634,0-14.380249,2.6191101-14.380249,8.1342926
	c0,15.551651,53.3738403,9.8092499,53.3738403,49.3237457C607.0967407,322.5464783,584.1259766,332.3562927,559.9532471,332.3562927
	z M52.7564125,332.3562927c-22.7749023,0-39.0426636-7.4184875-52.7564125-15.8123779l14.3969736-26.9884644
	c10.9156923,7.3855591,26.4188843,15.730896,36.4886513,15.730896c10.3623238,0,23.8973045-3.3996582,23.8973045-15.405365
	c0-20.8228455-37.3670082-24.5479736-56.5142326-46.3305817c-5.9540033-6.9467163-10.03722-15.8123779-10.03722-28.0135193
	c0-23.9299011,18.9194279-45.0129089,53.618351-45.0129089c16.75597,0,30.6326485,4.3276062,39.7584953,9.582016
	l-0.4879761,30.2094269c-13.4043121-7.1744995-26.1419983-13.4702148-39.0750961-13.4702148
	c-11.7290115,0-19.4562035,5.2058563-19.4562035,14.2993317c0,27.2977448,67.8693237,24.9711914,67.8693237,74.5395203
	C110.4254303,314.4127808,85.0477753,332.3562927,52.7564125,332.3562927z M752.5933838,213.975235
	c-15.3388672,0-30.1920776,2.3751373-45.7910767,12.461319l9.8404541,19.6514587
	c7.649231-4.3270264,17.506958-7.6781158,29.0067749-7.6781158c11.257019,0,21.3287964,4.9936676,21.3287964,16.9508209v1.9356995
	l-19.6867065,0.7481689c-28.7467041,0.9597473-48.1327515,13.4210815-48.1327515,37.3671875
	c0,22.5474854,16.263916,36.9277649,37.8355103,36.9277649c14.6392822,0,24.6820679-5.4984131,32.1115723-12.2167664
	l5.0474854,9.97229h25.4105835v-73.9538269C799.5756226,226.2087708,782.8028564,213.975235,752.5933838,213.975235z
	 M766.9956055,301.9190674c-3.1104736,2.3913269-9.6149292,5.2706299-18.223877,5.2706299
	c-11.0430908,0-17.2757568-5.5307922-17.2757568-14.1368713c0-8.6216736,6.7183228-13.4205017,20.6117554-13.9084778
	l14.8706055-0.4717712v23.2464905H766.9956055z M223.7469177,272.1652527c0-35.1874847-21.6524963-58.1900177-52.7725525-58.1900177
	c-34.0484772,0-53.2119522,27.5087891-53.2119522,59.5400238c0,29.9816284,16.6906357,58.8410339,57.278801,58.8410339
	c13.7627869,0,29.0704498-3.1400146,44.8666382-13.0793762l-7.2068939-20.5140686
	c-12.8515778,6.1008606-21.1969147,8.118103-32.2422791,8.118103c-15.1128082,0-29.5422211-9.4681396-30.2256165-24.8087463
	h73.513855V272.1652527L223.7469177,272.1652527z M149.5496674,259.7692566c0-10.3787384,7.4341278-22.108078,20.513504-22.108078
	c13.7627716,0,19.8468628,11.2737427,20.5140839,22.108078H149.5496674z M435.9113159,272.1652527
	c0-35.1874847-21.6524658-58.1900177-52.7563171-58.1900177c-34.0485229,0-53.2281799,27.5087891-53.2281799,59.5400238
	c0,29.9816284,16.6906433,58.8410339,57.2788391,58.8410339c13.7627258,0,29.0866089-3.1400146,44.8666382-13.0793762
	l-7.2069397-20.5140686c-12.851593,6.1008606-21.1968994,8.118103-32.2422791,8.118103
	c-15.0966187,0-29.5427856-9.4681396-30.2094116-24.8087463h73.5138245v-9.9069519H435.9113159z M361.7140808,259.7692566
	c0-10.3787384,7.4503174-22.108078,20.5135193-22.108078c13.7627258,0,19.8468628,11.2737427,20.5140381,22.108078H361.7140808z
	 M304.7608032,216.2364807l-26.1264038,72.0013428h-0.4717712l-26.6137848-72.0013428h-35.1383514l47.6152649,113.8747864
	h28.6969299l45.305481-113.8747864H304.7608032L304.7608032,216.2364807z"/>
<path fill="#002F6C" d="M999.2931519,56.9716263c-0.9597778,10.0695953-2.9082031,21.2618256-6.1112671,33.6745758h0.0115356
	c-2.0004272,7.6781082-4.1801147,14.7381516-6.5391235,21.1968918c-0.0289307,0.0971375-0.0635986,0.1948547-0.1098022,0.2925568
	c-1.855957,1.2852859-3.7581787,2.293602-5.6950073,2.9116745c-6.4292603,2.0339966-14.3502197,0.1630478-21.4559326-2.7653885
	c-5.076355-2.0981827-10.3955078-4.8150101-15.9748535-8.247612c0.0115967-0.0323792,0.0288696-0.0815125,0.0462646-0.1138916
	c2.9139404-7.1091919,5.5966797-15.0966263,7.9208984-24.0923843c3.6135864-13.9414291,5.3365479-26.2238617,5.6950073-37.0094109
	c0.2254639-6.6697769-0.0983276-12.7702312-0.8267212-18.3174934c-1.0118408-7.6295986-3.3534546-15.3893452-8.331543-19.9605827
	c-1.5783691-1.4152987-3.4978638-2.6028559-5.6429443-3.5789182c10.1642456-1.1062108,19.1953125-1.1875415,27.1624756-0.6019019
	c8.3777466,0.7157842,16.9057617,2.781791,21.8837891,7.662148c4.9780884,4.8802824,7.1751099,13.3883553,8.0539551,21.7337322
	C1000.1893311,37.710556,1000.2529297,46.7554626,999.2931519,56.9716263z M954.6871948,123.4256058
	c-5.1688232-2.1311493-10.6209106-4.8965378-16.298645-8.4268494c-9.1408081-5.6938248-18.9350586-13.3395615-29.2149048-23.4095612
	v-0.0161896c-6.6200562-6.5067291-12.1878662-12.8024368-16.9057007-18.8703308
	c-0.0463257-0.0491486-0.0809937-0.1139069-0.1271973-0.1630478c-5.6950073,3.0747147-10.6557007,6.2957001-14.9514771,9.5982132
	c-6.0997925,4.701683-11.6790771,10.6227341-13.130249,17.1948013c-0.4509888,2.0825729-0.5319824,4.3438034-0.3065186,6.7027359
	c0.017395,0.0161819,0.034668,0.0485611,0.0462646,0.0647507c4.428833,5.2382278,9.4241943,10.6395035,15.0845337,16.2026672
	c9.2044067,9.0125275,17.9926758,16.2841797,26.2893677,22.1242828
	c8.3430786,5.8892517,16.1829834,10.3463745,23.4390869,13.6650696c7.631897,3.530304,16.1367188,5.7915344,22.8551025,3.9367676
	c6.7183228-1.8709717,12.7717896-8.2476196,17.5878906-15.1290131c4.5848999-6.5558777,9.0252686-14.4293976,13.1245117-23.8160019
	c-1.9484863,1.3991699-3.9662476,2.5052109-6.0303345,3.1394577
	C969.7196655,128.2406158,961.81604,126.3702164,954.6871948,123.4256058z M869.7366333,72.6049576
	c4.428833-3.4002228,9.5513306-6.7021561,15.4429321-9.8583908c9.4993286-5.0917168,21.0454102-9.7280159,34.9389038-13.5834846
	c8.9153442-2.4727211,17.1484375-4.148262,24.7630005-5.1731262c0.0462646,0,0.0809326-0.0163078,0.1271973-0.0163078
	c0.1965332-6.5396309-0.1098633-12.4936352-0.8268433-17.9270515c-1.0291138-7.6296005-3.3706665-15.4055939-8.3487549-19.9443512
	c-1.4916992-1.3664718-3.3013916-2.505214-5.3364868-3.4650123c-0.1098022,0.0162642-0.2254639,0.0325339-0.3411255,0.0650733
	c-6.7645874,1.1712759-13.9396973,2.7817822-21.6004028,4.8965921c-12.3324585,3.4162378-23.0054932,7.3205109-32.192627,11.5338736
	c-9.2565308,4.2458534-17.0039673,8.7846107-23.4794312,13.4209042c-6.897644,4.945385-13.2575684,11.1434326-15.0151367,17.9596062
	c-1.7403564,6.8162308,0.7977905,15.3241882,4.411377,22.9699173c3.3997192,7.2069016,8.0018921,14.9341507,14.0206299,23.1169968
	c-0.2427368-2.4080658-0.1791382-4.7016754,0.2949219-6.8166275
	C858.0748901,83.2276917,863.6542358,77.3060684,869.7366333,72.6049576z"/>
</svg>
