<?xml version="1.0" encoding="utf-8"?>
<!-- Generator: Adobe Illustrator 28.0.0, SVG Export Plug-In . SVG Version: 6.00 Build 0)  -->
<svg version="1.1" id="Слой_1" xmlns="http://www.w3.org/2000/svg" xmlns:xlink="http://www.w3.org/1999/xlink" x="0px" y="0px"
	 viewBox="0 0 1000 301.1288452" style="enable-background:new 0 0 1000 301.1288452;" xml:space="preserve">
<style type="text/css">
	.st0{fill:#005B9B;}
</style>
<g>
	<path class="st0" d="M420.8867798,100.6431808c-3.2891541-3.0529938-7.3227844-5.310791-12.0015869-6.7698441
		c-4.7139893-1.4983826-9.7972717-2.2023468-15.3436584-2.2023468h-37.3771057v117.8218536h24.5193787v-42.9893494h14.241272
		c5.6344604,0,10.711853-0.899826,15.2262573-2.7324829c4.4857178-1.8000183,8.3726501-4.3228912,11.5503235-7.5666199
		c3.0901794-3.2976227,5.5583496-7.2803192,7.2644043-11.9264832c1.6592102-4.5895233,2.5269775-9.7296448,2.5269775-15.3424683
		c0-6.446579-0.9438477-11.983902-2.790863-16.706749C426.8614502,107.5353394,424.2229614,103.6949997,420.8867798,100.6431808z
		 M403.3152466,140.2570496c-2.7557068,2.2751007-5.992157,3.3656616-9.5686035,3.3656616h-13.0628357v-29.2880249h12.8577271
		c4.3209229,0,7.7097778,1.1102142,10.1956787,3.3381195c2.4508972,2.1881866,3.7231445,5.8307037,3.7231445,10.9224396
		C407.4603577,134.12117,406.0766296,137.9634705,403.3152466,140.2570496z"/>
	<path class="st0" d="M515.9800415,102.7479935c-3.0372314-3.5276794-6.9243774-6.4096069-11.6851807-8.6095886
		c-4.7605896-2.2212219-10.3364563-3.3188553-16.744873-3.3188553c-6.9185181,0-12.7698669,1.1377487-17.5306702,3.4517822
		c-4.79599,2.3132477-8.7240295,5.298996-11.737915,8.9226379c-3.0777588,3.6094818-5.3176575,7.6319046-6.6661987,12.1054153
		c-1.3074646,4.4192429-2.0637207,8.8939362-2.0637207,13.2958603v41.9479675c0,5.36586,0.7562561,10.4296722,2.1575012,15.2551727
		c1.453949,4.8829041,3.6702576,9.1200562,6.6839294,12.7908936c3.0956726,3.6578522,6.9888916,6.5602264,11.7905884,8.7016144
		c4.79599,2.1649933,10.6298523,3.2264404,17.3664856,3.2264404c5.5170593,0,10.5535278-0.874649,15.1442566-2.6176453
		c4.5792847-1.7457428,8.5425415-4.2654724,11.8139954-7.6047668c3.3949585-3.337738,5.9510498-7.3463898,7.7923584-12.0601959
		c1.8702393-4.6638641,2.8258667-9.9365082,2.8258667-15.7967072v-43.8427734c0-4.6449738-0.7739258-9.1975327-2.2807617-13.7312164
		C521.2977295,110.3602371,519.0580444,106.2953415,515.9800415,102.7479935z M500.3725281,174.1149445
		c0,3.9634399-1.2313538,7.0286255-3.7935486,9.3029327c-2.5385742,2.2577972-5.5758362,3.3951569-9.0289917,3.3951569
		c-4.8723145,0-8.3195801-1.4441071-10.4302673-4.3799133c-2.105011-2.9413147-3.1369629-6.6577606-3.1369629-11.2001038
		v-43.6811218c0-1.3457947,0.2461853-2.789505,0.7387695-4.305191c0.551178-1.5357437,1.3308411-2.9389496,2.3981934-4.2462006
		c1.0728455-1.273819,2.4563904-2.3333054,4.1626282-3.1878891c1.6885071-0.8722839,3.8108215-1.307251,6.2676392-1.307251
		c2.4449768,0,4.5261841,0.5317078,6.156311,1.4393921c1.6590576,1.0067825,2.9723816,2.1146393,3.9986572,3.4726257
		c0.9554443,1.3819656,1.7062073,2.8052292,2.1047974,4.2662506c0.3985901,1.4409637,0.5627747,2.7702332,0.5627747,3.8682632
		V174.1149445z"/>
	<path class="st0" d="M574.0714111,123.2467041c0.4337769-1.5357437,1.1609497-2.9389496,2.2102051-4.2462006
		c1.0026855-1.273819,2.362793-2.3525696,3.9984131-3.2059784c1.7121582-0.8541946,3.7937622-1.2702866,6.3382568-1.2702866
		c2.3217163,0,4.3621826,0.4542389,6.0621338,1.3280945c1.6653442,0.9277344,3.0958862,2.0296936,4.2041016,3.2244644
		c1.119873,1.2502289,1.9463501,2.6341629,2.503418,4.1699066c0.4749146,1.515686,0.8325806,2.8834991,1.072876,3.9638214
		l23.2120972-6.9405289c-0.7798462-3.8128052-2.1929321-7.509201-4.0513306-11.094696
		c-1.987793-3.5453796-4.4619141-6.6542282-7.4991455-9.3469849c-3.0134888-2.7497864-6.7073364-4.9308929-10.9871826-6.5515823
		c-4.291626-1.6509705-9.1228027-2.4363403-14.5169678-2.4363403c-6.9362183,0-12.7639771,1.1169052-17.583374,3.4309387
		c-4.7785034,2.3305511-8.6479492,5.298996-11.661377,8.9116287c-2.9786987,3.620491-5.1950073,7.6429138-6.5201416,12.1282272
		c-1.3776245,4.4074402-2.0870972,8.8821335-2.0870972,13.2840576v41.9636993
		c0,5.3501282,0.7562866,10.3938904,2.1810913,15.2394409c1.4128418,4.8632507,3.6116333,9.1098328,6.5901489,12.7908936
		c2.9784546,3.6578522,6.9180908,6.5602264,11.6969604,8.6855011c4.7606201,2.1811066,10.5944824,3.2598572,17.3837891,3.2598572
		c9.5567627,0,17.6946411-2.614502,24.3376465-7.7915802c6.6369629-5.2069702,10.8467407-12.3744202,12.5526123-21.5070648
		l-23.3702393-6.7887268c-0.4748535,3.8509521-1.9815063,6.8473206-4.5966187,9.0646057
		c-2.5794678,2.1811066-5.6167603,3.3011627-8.9234009,3.3011627c-4.9249878,0-8.302063-1.4232635-10.2953491-4.3799133
		c-1.9644165-2.9413147-2.9611816-6.6577606-2.9611816-11.1894836v-43.6917419
		C573.3617554,126.2061005,573.5611572,124.7623901,574.0714111,123.2467041z"/>
	<path class="st0" d="M669.5453491,123.2467041c0.480835-1.5357437,1.2136841-2.9389496,2.1813354-4.2462006
		c1.0317383-1.273819,2.3980103-2.3525696,4.0688477-3.2059784c1.7005005-0.8541946,3.8110352-1.2702866,6.2850952-1.2702866
		c2.3569336,0,4.350647,0.4542389,6.0743408,1.3280945c1.7003174,0.9277344,3.0957031,2.0296936,4.2389526,3.2244644
		c1.1314697,1.2502289,1.9639893,2.6341629,2.4390869,4.1699066c0.4807739,1.515686,0.8736572,2.8834991,1.1078491,3.9638214
		l23.1946411-6.9405289c-0.7973633-3.8128052-2.1282349-7.509201-4.0690308-11.094696
		c-1.8761597-3.5453796-4.4033203-6.6542282-7.4517822-9.3469849c-3.0549927-2.7497864-6.7370605-4.9308929-10.9698486-6.5515823
		c-4.3272095-1.6509705-9.1934204-2.4363403-14.564209-2.4363403c-6.9066772,0-12.7346191,1.1169052-17.5188599,3.4309387
		c-4.8311768,2.3305511-8.7183228,5.298996-11.6965942,8.9116287c-2.9784546,3.620491-5.1595459,7.6429138-6.5258179,12.1282272
		c-1.336731,4.4074402-2.0049438,8.8821335-2.0049438,13.2840576v41.9636993c0,5.3501282,0.6682129,10.3938904,2.098938,15.2394409
		c1.383728,4.8632507,3.5646362,9.1098328,6.5899048,12.7908936c2.9902954,3.6578522,6.9244385,6.5602264,11.7029419,8.6855011
		c4.7605591,2.1811066,10.5535278,3.2598572,17.3544312,3.2598572c9.5803833,0,17.6889648-2.614502,24.3554077-7.7915802
		c6.6486816-5.2069702,10.8115234-12.3744202,12.517334-21.5070648l-23.3228149-6.7887268
		c-0.4398804,3.8509521-2.0230103,6.8473206-4.6029053,9.0646057c-2.5794678,2.1811066-5.5581665,3.3011627-8.9470215,3.3011627
		c-4.8778076,0-8.2904053-1.4232635-10.2542725-4.3799133c-1.987793-2.9413147-2.9727173-6.6577606-2.9727173-11.1894836
		v-43.6917419C668.8536377,126.2061005,669.0881958,124.7623901,669.5453491,123.2467041z"/>
	<polygon class="st0" points="742.5231934,209.4928436 811.0681763,209.4928436 811.0681763,186.3202515 767.0541382,186.3202515 
		767.0541382,161.2689972 804.9588623,161.2689972 804.9588623,138.7209167 767.0541382,138.7209167 767.0541382,114.3626022 
		811.0681763,114.3626022 811.0681763,91.67099 742.5231934,91.67099 	"/>
	<polygon class="st0" points="824.6002197,114.0110168 849.8290405,114.0110168 849.8290405,209.4928436 874.2250977,209.4928436 
		874.2250977,114.0110168 899.4187622,114.0110168 899.4187622,91.67099 824.6002197,91.67099 	"/>
	<polygon class="st0" points="977.8318481,91.67099 944.1542358,160.0742188 943.8081665,160.0742188 943.8081665,91.67099 
		919.4121094,91.67099 919.4121094,209.4928436 942.4362183,209.4928436 975.2928467,145.3582306 975.451355,145.3582306 
		975.451355,209.4928436 1000,209.4928436 1000,91.67099 	"/>
	<path class="st0" d="M181.0922546,90.590271L93.3298264,289.8434143
		c17.6726303,7.2405701,37.0111771,11.2854309,57.3828506,11.2854309c19.8566895,0,38.7805328-3.8666992,56.1664581-10.8890381
		L185.0904846,91.184906C183.7012329,91.1251221,182.3707886,90.9273071,181.0922546,90.590271z"/>
	<path class="st0" d="M171.2328339,84.6691132L6.227324,193.3819122
		c11.3072662,38.0443115,37.2115479,69.7718353,71.2023697,88.7454071l96.8303757-194.7099915
		C173.1887817,86.6327362,172.1279297,85.7002792,171.2328339,84.6691132z"/>
	<path class="st0" d="M192.6067657,90.1348572l30.8945618,192.250061
		c34.3156586-19.0420227,60.4515839-50.9783478,71.700058-89.4013824L197.4794617,87.8341904
		C196.0107727,88.8244629,194.3242035,89.5984268,192.6067657,90.1348572z"/>
	<path class="st0" d="M173.3753967,55.1230927L141.8382263,0C100.8148499,2.360244,64.197731,21.1242142,38.4212646,49.8866272
		L166.640152,65.2405014C167.8117218,61.2129669,170.1719666,57.7226448,173.3753967,55.1230927z"/>
	<path class="st0" d="M206.4817352,71.7153931c-0.1695099,3.9390488-1.4065552,7.5894394-3.459259,10.6027145l96.5401459,91.5050278
		c1.1609497-7.598877,1.8072815-15.4132538,1.8072815-23.4187775c0-32.3398514-10.2359619-62.2736359-27.552887-86.7912292
		L206.4817352,71.7153931z"/>
	<path class="st0" d="M166.0250702,73.1060181l-140.0307312-7.330658C9.5794096,89.8957443,0,119.0146637,0,150.4153748
		c0,8.4495239,0.7016038,16.7810669,2.0700066,24.8349609l165.0782623-97.0395966
		C166.5434113,76.6258392,166.1979218,74.8702545,166.0250702,73.1060181z"/>
	<path class="st0" d="M186.6075439,50.5005302c8.3006744,0.2186623,15.3332367,5.3367538,18.3777771,12.5769577
		l57.5037842-13.686779C236.9407349,21.0827236,200.7589874,2.5773323,160.253952,0.0383444l21.2563477,51.079628
		C183.124115,50.7593079,184.8208923,50.4808693,186.6075439,50.5005302z"/>
</g>
</svg>
