<svg xmlns="http://www.w3.org/2000/svg" viewBox="0 0 86.48 120.93"><defs><style>.a,.b{fill:#007dc3;}.a{fill-rule:evenodd;}</style></defs><path class="a" d="M59.06,86.58a14.19,14.19,0,0,0-.7-3.45c-1.86.45-3.92.6-4.57-1.36a6.06,6.06,0,0,1-4.52,1c-.71-1.61-1.41-3.22-2.07-4.83-.55-.4-1.1-.75-1.6-1.11-1.66-2-1.86-3.92-4.63-5.12-2.26-3.42-2.36-3.32-6.63-4.22-1.21-.46-2.71-1.26-4-1.26.45.7.95,1.46,1.46,2.21.75.3,1.55.6,2.36.91,1.86,1.86,2.16,5,4.27,7a4.45,4.45,0,0,0-.25-2c3.32,0,4.62,1.16,4.87,4.42-1.91,4.28-5.83,3.82-7.79-.15-.55-.4-3.87-1.91-7.13-3.61-1.31-1.76-2-3.87-3.57-5.43A21.14,21.14,0,0,1,19.77,66a10.4,10.4,0,0,0-1.46-4.63c-.6-.55-3.72-2.86-3.72-3.61-4.06-1.29-2.79-14.85-2.46-18A40.08,40.08,0,0,0,14,33.47c.3-3,.3-3,.65-11.41,1.26-2,2.71-3.31.05-4.37.9-2.21,3.22-3.62,4.07-5.78,0-.9-.25-1.31-.25-1.81,3.62-2.36,6.28-3.72,7.74-7.84A14.12,14.12,0,0,1,28.81,0h.35c-.1,1.16-.15,2.31-.2,3.52,3.62-.66,4-.86,4.47-.81a3.64,3.64,0,0,0-.75,1.81c1.16.1,2.31.25,3.52.4,3.72,1.36,8.14-.3,12,.76a2.72,2.72,0,0,1,.69,2.19c2.39.36,3.14,2.63.92,3.49a13.07,13.07,0,0,0-4.17.55,4.07,4.07,0,0,0,.1.76c1.15,0,2.36.05,3.57.1.4,2.16-1.56,4.17-3.62,2.81a24.55,24.55,0,0,0-4.88.55c-.75,1.86-4.42,2-6,2a67,67,0,0,0-.05,10.51c3.57-.45,5-.56,8.49.4a33.71,33.71,0,0,1,5.92-3c7.84-2,16.39-.71,24.44-.71a11.13,11.13,0,0,1,1.26.05,5.71,5.71,0,0,1-1.31,2.06,29.68,29.68,0,0,0-3.77,1.31,2.59,2.59,0,0,0,1.16.6c-.71,2.51-6.79,1.56-7.44,3.62a3,3,0,0,0,1.35.65c-5,2.21-9.24.3-14.47.05a8.44,8.44,0,0,0-1.26.41c1.86,3.18,2.23,9.13,2.37,13.77a3.78,3.78,0,0,0,0,.75A34.2,34.2,0,0,1,55.2,60.66a15.09,15.09,0,0,0,2.66,4.63,45.42,45.42,0,0,1,1.66,6.33c1,1.55,2,3.16,3,4.77.66,2.57,4.27,6.13,4,8.14-.6,0-2.23,1.57-2.48,2.07l-5,0m-.35-9.33A.63.63,0,0,1,59,77c.36.61,2.12,3.27,1.86,4.13a12.38,12.38,0,0,0-1.3.95c-.71-.7-.71-3.77-.81-4.82M59,77a.63.63,0,0,0-.25.26l-1.4-.15a2.07,2.07,0,0,1,.25-1.16h.85A10.58,10.58,0,0,0,59,77M54,77l-4-2.51c-.25-1.91-2.26-3.06-3.57-4.37-.75-1.46-1.46-2.91-2.16-4.32-2.21-2.57-5.58-2.21-2.41-5.78A8.2,8.2,0,0,1,44,59.3a9.13,9.13,0,0,0,4.52,5.18c2.77,2.92,2.16,6.89,4.93,9.65.15.4,1.2,2.66.55,2.86m2.06-5c-1.76-.86-1.41-2.56-1.41-4.12-1.3-2.36-2.16-4.52-4.72-5.58C49.16,61,47.41,59,48.51,57.49c3.22,0,3.77,2.37,4.47,4.93,1.26,2.76,2.82,5.33,4.23,7.94a11,11,0,0,0-.05,1.31L56.1,72m-26.38-.65a42.38,42.38,0,0,0-2.87-4.83c-1.86-1.86-4.37-2.66-2.51-5.13H25.7c2.71,2.37,2.06,6.79,5.72,8.85v.65c-.6.15-1.15.31-1.7.46M30,57.14a22.56,22.56,0,0,0-5.48-.7c-3.32-1.36-4.62-2-5-5.68a6.91,6.91,0,0,1,2.32-1.61,19.74,19.74,0,0,1,5.07,4.73c1.36.65,2.51.2,3.87,1.2,1.26.1,1.26.1,1.56.25a1.44,1.44,0,0,0,.05.46A11.43,11.43,0,0,1,30,57.14m4.22-2.76c-.25-.6-.4-.71-.25-1.36,3-1.81,1.61-3.82-1-5.17-.25-.56-.5-1.06-.7-1.56.15-.35.3-.71.45-1,3.67-.2,5.53-.35,6.69,3.22-.26,1.26-1.41,2.36-2.22,3.32-.8,1.91-.9,2.36-3,2.56m11.71-.65c-1.26-1.71-2.41-3.32-4.52-1.81a1.48,1.48,0,0,0-.46-.05c-.25-1.76,1.31-1,2-2.11-.55-4.18-5-8.55-7.54-11.61a33.28,33.28,0,0,1-.9-7.39,13.45,13.45,0,0,1,6.83,1.81,3.1,3.1,0,0,0,.16-1.71c9.54,3,8.18,10.67,6.08,15.88-1,1.71-2.87.35-3,3,2,0,2.41,1,3.37,2.61,0,.9-1.26,1.3-2,1.41M31.73,34.12c-2.16-4.87-1.66-11-1.26-16.28a3.33,3.33,0,0,1,2,.7,130.73,130.73,0,0,0-.7,15.58m2.91-26.6c1.06-1.06,2.51-1.1,2.76.41a1.8,1.8,0,0,1-2.76-.41m14.17.36a7.71,7.71,0,0,0-.75.29c-.86.44-1.91-.06-1.59-1,.14,0,2.42.66,2.34.69"/><rect class="b" y="90.84" width="86.48" height="3.46"/><path class="a" d="M62,109.22l-1.91,5.87h3.84Zm-37.3,0-1.92,5.87h3.85ZM7.07,100.31v7.1l7-7.1h5.84l-6,6L18,116.7l5.4-16.39H28l5.29,15.93V100.31h7.54l3.48,11.54,3.84-11.54h7.2v15.93l5.27-15.93h4.65l5.58,17,5.68-13.5H70.82v-3.54H84.89L78,117.38h6.94l-.1,3.5-19,.05-.76-2.3H58.92l-.75,2.3h-9V109.71l-3.44,11.22h-5l-3.58-11.22v11.22H28.54l-.75-2.3H21.62l-.75,2.3H12.63L8.8,111.1l-1.73,1.7v8.13H.84V100.31Z"/></svg>