<?xml version="1.0" encoding="UTF-8"?>
<svg width="400" height="100" version="1.1" xmlns="http://www.w3.org/2000/svg">
 <path d="m125.48 29.097v41.58h9.3244v-33.234h22.257v33.234h9.3992v-41.58zm57.296 20.828c0-8.5719 6.0904-13.761 13.91-13.761 7.8214 0 13.91 5.1892 13.91 13.761 0 8.5716-6.0888 13.76-13.91 13.76-7.8196 0-13.91-5.1882-13.91-13.76m37.218 0c0-13.084-10.677-21.806-23.308-21.806-12.631 0-23.308 8.722-23.308 21.806 0 13.084 10.677 21.806 23.308 21.806 12.631 0 23.308-8.7221 23.308-21.806m17.069-20.828-5.5643 29.775c-0.4504 2.2553-1.8806 3.233-4.0604 3.233h-4.5105v8.572h4.9609c6.8435 0 11.43-3.2334 12.783-10.602l4.2121-22.559h15.939v33.16h9.3997v-41.58zm42.181 0v41.58h9.2505v-17.594h6.3155c1.4267 11.955 10.976 18.648 22.557 18.648 12.556 0 22.707-7.8955 22.707-21.806 0-13.91-10.15-21.806-22.707-21.806-10.901 0-20 5.9408-22.182 16.542h-6.6908v-15.563zm24.74 20.828c0-8.5719 4.588-13.761 13.384-13.761 8.7982 0 13.384 5.1892 13.384 13.761 0 8.5716-4.5856 13.76-13.384 13.76-8.7959 0-13.384-5.1882-13.384-13.76m86.017-10.677c-4.2848-7.2946-11.351-11.129-21.051-11.129-13.085 0-23.236 8.3474-23.236 21.806 0 13.459 9.9266 21.806 23.236 21.806 9.7005 0 16.767-3.8346 21.051-11.128l-7.2922-4.2112c-3.1589 4.5117-7.2922 6.9927-13.911 6.9927-8.1198 0-13.759-5.4137-13.759-13.459 0-8.1961 5.4132-13.458 13.759-13.458 6.6185 0 10.752 2.4809 13.911 6.9917l7.2922-4.21" fill="#2b2e2d"/>
 <path d="m58.378 11.003-4.9146 29.529c-0.116 0.70266-0.8727 1.0189-1.5332 0.76202l-14.771-5.7069c-1.8286-0.70653-2.44-2.08-2.1886-3.5976l3.1457-18.897c0.2536-1.5144 1.2754-2.6165 3.2365-2.6927l15.822-0.61563c0.7087-0.0261 1.3213 0.5175 1.2034 1.219m-42.405 21.26 26.595 13.741c0.6314 0.32655 0.7014 1.1438 0.2547 1.6939l-9.9671 12.306c-1.2337 1.5229-2.7272 1.6836-4.0934 0.97806l-17.02-8.7931c-1.3651-0.70652-2.0978-2.0174-1.5697-3.9065l4.2718-15.248c0.191-0.68464 0.8976-1.0979 1.529-0.77135m7.1149 46.781 21.316-21.017c0.5074-0.49981 1.3046-0.31192 1.6909 0.28409l8.6041 13.291c1.0656 1.6469 0.7546 3.1176-0.3393 4.1978l-13.642 13.449c-1.0949 1.0793-2.5686 1.3695-4.2009 0.27995l-13.169-8.7922c-0.5906-0.39347-0.765-1.193-0.2598-1.6928m46.941 7.6241-13.558-26.69c-0.3224-0.63446 0.099-1.3357 0.7829-1.5228l15.276-4.1652c1.8922-0.51558 3.1988 0.22633 3.895 1.5979l8.6752 17.079c0.6961 1.3716 0.5259 2.8639-1.0062 4.0892l-12.375 9.8795c-0.5553 0.44257-1.3704 0.36647-1.6907-0.26701m21.588-41.91-29.604 4.4452c-0.7034 0.10424-1.2367-0.5167-1.1981-1.2244l0.8672-15.812c0.1076-1.9569 1.2242-2.9628 2.745-3.1914l18.943-2.8432c1.5206-0.22955 2.8836 0.40394 3.562 2.2439l5.472 14.86c0.2444 0.66599-0.083 1.4163-0.7868 1.5216" fill="#f9aa24"/>
</svg>
