<svg fill="none" xmlns="http://www.w3.org/2000/svg" viewBox="-0.03 0 172.05 37.43"><g clip-path="url(#a)"><path d="M2.428 33.255l22.379-5.33c.19-.047.735-.162 1.206-.133.378.022.604.038.951.184.474.194.837.589 1.04.805l8.144 8.608h.095l-36.246.025 2.428-4.159h.003zM38.35 37.392L22.544 20.673c-.133-.14-.505-.553-.719-.976-.168-.338-.267-.541-.315-.914-.07-.509.096-1.018.178-1.304l3.386-11.357-.048-.083L43.17 37.417l-4.814-.025h-.007z" fill="#FF9A00" style="--darkreader-inline-fill: #cc7b00;" data-darkreader-inline-fill=""/><path d="M23.89 4.181l-6.573 22.045c-.055.185-.227.716-.487 1.114-.207.315-.338.503-.637.732-.407.312-.929.43-1.219.496L3.45 31.318l-.047.082L21.504 0l2.386 4.181zM50.304 10.959h4.939c3.443 0 5.027 2.119 5.027 4.633s-1.673 4.502-5.333 4.502h-2.364v6.65h-2.269V10.96zm2.27 7.105h2.58c1.677 0 2.78-.996 2.78-2.558 0-1.168-.639-2.517-2.691-2.517h-2.67v5.078-.003zM82.614 24.715h7.125v2.03h-9.393V10.959h2.268v13.756zM90.614 10.959l4.254 5.447 4.277-5.447h2.733l-5.864 7.452v8.334h-2.269v-8.356l-5.868-7.43h2.737zM106.059 10.959l5.228 6.482 5.248-6.482h2.116v15.786h-2.272v-12.28h-.042l-4.871 6.107h-.354l-4.878-6.107h-.041v12.28h-2.272V10.959h2.138zM160.685 26.745h-2.317l-2.116-4.652h-6.704l-2.008 4.652h-2.313l6.79-15.875h1.585l7.08 15.875h.003zm-10.253-6.683h4.891l-2.533-5.733-2.358 5.733zM164.879 24.715H172v2.03h-9.393V10.959h2.272v13.756zM131.589 10.984v2.027h-7.281v4.61h7.121v2.028h-7.121v5.097h7.557v2.027h-9.835V10.984h9.559zM146.398 10.984v2.027h-5.33v13.762h-2.266V13.011h-5.327v-2.027h12.923zM69.756 10.848c4.977 0 8.12 3.713 8.12 8.114 0 4.4-3.054 8.11-8.165 8.11-5.11 0-8.06-3.824-8.06-8.11 0-4.287 3.211-8.114 8.105-8.114zm0 14.147c3.395 0 5.883-2.587 5.883-6.033 0-3.447-2.488-6.034-5.883-6.034s-5.865 2.565-5.865 6.034c0 3.468 2.489 6.033 5.865 6.033zM81.58 30.449h.522v6.6h-.522v-6.6zM83.35 30.458h.483l4.958 5.76v-5.76h.512v6.59h-.427l-5.005-5.788v5.788h-.522v-6.59zM89.927 30.449h5.45v.435h-2.462v6.164h-.522v-6.164h-2.466v-.435zM96.071 30.458h3.605v.436h-3.083v2.619H99.6v.436h-3.007v2.666h3.16v.436H96.07v-6.593zM102.406 30.458c2.021 0 2.263 1.053 2.263 1.712 0 .802-.512 1.371-1.228 1.585.241.146.579.55.716.763 0 0 1.508 2.32 1.651 2.533h-.598l-1.238-1.931c-.56-.869-.859-1.228-1.613-1.228h-1.034v3.16h-.522v-6.59h1.603v-.004zm-1.081 2.998h1.101c1.228 0 1.689-.56 1.689-1.286 0-.85-.56-1.276-1.922-1.276h-.868v2.562zM106.339 30.458h.484l4.958 5.76v-5.76h.512v6.59h-.426l-5.006-5.788v5.788h-.522v-6.59zM115.943 30.41h.299l3.042 6.638h-.532l-1.043-2.278h-3.217l-1.044 2.278h-.531l3.026-6.638zm.152.83l-1.428 3.094h2.841l-1.409-3.093h-.004zM119.36 30.449h5.451v.435h-2.466v6.164h-.522v-6.164h-2.463v-.435zM125.505 30.449h.521v6.6h-.521v-6.6zM134.086 33.726c0 1.922-1.508 3.411-3.477 3.411-1.97 0-3.488-1.47-3.488-3.382 0-1.913 1.508-3.383 3.488-3.383 1.979 0 3.477 1.442 3.477 3.354zm-.55 0c0-1.594-1.286-2.89-2.927-2.89a2.94 2.94 0 0 0-2.937 2.957c0 1.623 1.285 2.88 2.917 2.88a2.946 2.946 0 0 0 2.947-2.947zM135.222 30.458h.484l4.958 5.76v-5.76h.512v6.59h-.426l-5.006-5.788v5.788h-.522v-6.59zM144.826 30.41h.299l3.042 6.638h-.532l-1.043-2.278h-3.217l-1.044 2.278h-.531l3.026-6.638zm.152.83l-1.428 3.094h2.841l-1.409-3.093h-.004zM148.86 30.449h.522v6.163h3.256v.436h-3.781v-6.6h.003zM156.975 30.458h1.887c1.034 0 2.068.427 2.068 1.76s-1.034 1.75-2.068 1.75H157.5v3.083h-.522v-6.59l-.003-.003zm.521.436v2.628h1.229c.887.02 1.654-.27 1.654-1.304s-.763-1.324-1.654-1.324h-1.229zM161.9 30.449h.522v6.163h3.255v.436H161.9v-6.6zM169.671 36.673c.849 0 1.594-.31 2.329-.675v.531c-.745.376-1.489.611-2.329.611-1.983 0-3.507-1.413-3.507-3.354 0-1.94 1.48-3.41 3.449-3.41.968 0 1.655.25 2.32.55v.55c-.697-.36-1.304-.64-2.243-.64-1.766 0-2.975 1.258-2.975 2.928s1.247 2.909 2.956 2.909z" fill="#878787" style="--darkreader-inline-fill: #5c6367;" data-darkreader-inline-fill=""/></g><defs><clipPath id="a"><path fill="#fff" d="M0 0h172v37.414H0z" style="--darkreader-inline-fill: #e8e6e3;" data-darkreader-inline-fill=""/></clipPath></defs></svg>