<?xml version="1.0" encoding="utf-8"?>
<!-- Generator: Adobe Illustrator 28.0.0, SVG Export Plug-In . SVG Version: 6.00 Build 0)  -->
<svg version="1.1" id="Слой_1" xmlns="http://www.w3.org/2000/svg" xmlns:xlink="http://www.w3.org/1999/xlink" x="0px" y="0px"
	 viewBox="0 0 1000 268.4191284" enable-background="new 0 0 1000 268.4191284" xml:space="preserve">
<g>
	<path fill="#101828" d="M229.6261749,190.4689178l25.390213,44.5134125h23.6672668l-26.4884033-46.3936768
		c14.8907166-5.3291473,25.0786133-15.3596954,25.0786133-32.2880096c0-18.964386-14.8907471-31.0339966-39.0284729-31.0339966
		h-46.8626404v109.715683h20.688797v-44.5134125H229.6261749z M212.0715485,172.2880859v-28.8391113h26.1738434
		c12.6958466,0,18.3396301,5.6422577,18.3396301,14.418808c0,8.7780304-5.6437836,14.4203033-18.3396301,14.4203033H212.0715485z
		 M365.8287964,196.1111908c0-27.2704926-21.1592712-41.0645447-42.4758911-41.0645447
		c-21.315094,0-42.4743652,13.7940521-42.4743652,41.0645447c0,27.273468,21.1592712,41.0660248,42.4743652,41.0660248
		C344.6695251,237.1772156,365.8287964,223.3846588,365.8287964,196.1111908 M323.3529053,218.681778
		c-11.5976562,0-22.413269-8.3061066-22.413269-22.5705872c0-14.2615204,10.8156128-22.5691071,22.413269-22.5691071
		c11.5991821,0,22.4132996,8.3075867,22.4132996,22.5691071C345.7662048,210.3756714,334.9520874,218.681778,323.3529053,218.681778
		 M392.5353699,176.9894867c0-4.230957,4.7013855-6.581665,11.1271973-6.581665
		c7.5240479,0,12.6958618,3.2915802,16.4578857,8.9323578l12.8516846-8.9323578
		c-5.4849548-9.5615845-13.9483643-15.3611755-29.6226807-15.3611755c-15.2023621,0-28.3686829,7.9944611-28.3686829,22.5705872
		c0,14.1056824,11.2845459,21.3165741,26.4884033,24.2935333c11.1287231,2.1948853,16.3005981,5.1733246,16.3005981,10.0320282
		c0,5.9554138-5.4864807,8.6192322-12.2254333,8.6192322c-9.0911865,0-14.5776062-5.327652-18.3381348-11.4403687
		l-15.8301086,10.0305481c5.3291016,9.7174225,15.5169678,18.0250092,33.8551025,18.0250092
		c19.2775269,0,30.7194214-11.2860413,30.7194214-25.8621674c0-13.0089874-7.5225525-20.218399-25.704895-23.9804077
		C398.0202942,184.8266449,392.5353699,182.0054932,392.5353699,176.9894867 M441.8599854,157.2415314v15.9874268h12.0681152
		v39.182785c0,19.1231995,11.4418335,24.7654724,24.9212952,24.7654724c4.5455933,0,9.7174072-0.9408722,13.1662903-2.1948853
		l-1.8817444-16.3005524c-1.5671387,0.4704285-3.6046753,0.9408722-6.5831604,0.9408722
		c-5.9554138,0-9.8731995-2.9784546-9.8731995-10.9714203v-35.4222717h16.9267883v-15.9874268h-16.9267883v-21.0034485h-19.7494812
		v21.0034485H441.8599854z M516.6891479,200.8140717h59.8731079v-6.8962708
		c0-22.7264099-15.6743164-38.8711548-37.9302979-38.8711548c-22.5705566,0-40.9072266,16.4578705-40.9072266,41.0645447
		c0,24.6081543,18.3366699,41.0660248,39.9663696,41.0660248c17.0856323,0,27.8997192-6.4273224,35.7354126-19.7494507
		l-15.6728516-7.8371582c-4.8587036,6.1127167-9.2469482,10.6582947-19.7479248,10.6582947
		C526.4065552,220.2489014,517.9431763,212.7263641,516.6891479,200.8140717 M538.0057373,170.0932007
		c10.9713745,0,18.3380737,5.9568939,20.2183838,15.6743164h-41.2218628
		C519.8234253,176.9894867,527.6605225,170.0932007,538.0057373,170.0932007 M587.7236328,234.9823303h19.7479858V125.2681351
		h-19.7479858V234.9823303z M638.6065063,200.6849518h59.8731079v-6.8962708
		c0-22.7264099-15.6743164-38.8711395-37.9302368-38.8711395c-22.5706177,0-40.9072876,16.4578705-40.9072876,41.0645294
		c0,24.6081543,18.3366699,41.0645447,39.9663696,41.0645447c17.0856323,0,27.8997192-6.4258423,35.7368774-19.7479553
		l-15.6743164-7.8371582c-4.8587036,6.1127167-9.2469482,10.6582947-19.7479858,10.6582947
		C648.3239136,220.1197968,639.8604736,212.5972595,638.6065063,200.6849518 M659.9230347,169.9640961
		c10.9714355,0,18.3381958,5.9568939,20.2184448,15.6743011h-41.2218628
		C641.7407837,176.8603821,649.5779419,169.9640961,659.9230347,169.9640961 M784.682312,216.20047l-16.3005981-8.9323578
		c-4.701355,6.5831451-9.7173462,11.2845459-19.4347534,11.2845459c-11.9123535,0-20.6888428-8.6207123-20.6888428-22.5705872
		c0-13.7925568,9.0911255-22.5690918,20.6888428-22.5690918c7.0535278,0,13.1662598,3.2915802,18.0249634,10.6582794
		l16.9268188-9.7188873c-5.6422729-12.0681305-17.8676758-19.4348297-34.7944946-19.4348297
		c-22.1000977,0-40.9086914,16.3005676-40.9086914,41.0645294c0,24.7654724,17.8676758,41.0645447,40.9086914,41.0645447
		C765.7179565,237.0466156,776.8451538,229.5240784,784.682312,216.20047 M876.371521,195.9820709
		c0-27.2719727-21.1593018-41.0645294-42.4758911-41.0645294s-42.4758301,13.7925568-42.4758301,41.0645294
		s21.1592407,41.0645447,42.4758301,41.0645447S876.371521,223.2540588,876.371521,195.9820709 M833.8956299,218.5526581
		c-11.5976562,0-22.413208-8.3075867-22.413208-22.5705872c0-14.2629852,10.8155518-22.5690918,22.413208-22.5690918
		c11.5977173,0,22.4133301,8.3061066,22.4133301,22.5690918C856.30896,210.2450714,845.4933472,218.5526581,833.8956299,218.5526581
		 M1000,234.8532257v-54.3881378c0-15.3596954-8.9338989-25.5475464-25.0771484-25.5475464
		c-9.5615845,0-19.1217041,4.2324371-24.7654419,13.322113c-3.2901001-8.3061066-10.1879272-13.322113-21.6282349-13.322113
		c-8.1503296,0-16.7709961,3.6047058-22.5705566,12.5385437v-10.3436584h-19.7479858v77.740799h19.7479858v-43.5725555
		c0-12.5385437,7.0535278-19.1216888,14.7333984-19.1216888c8.6207275,0,12.5385742,5.4849548,12.5385742,14.8892517v47.8049927
		h19.7478638V191.593811c0-12.8516846,6.2700806-19.4348297,15.0466309-19.4348297
		c8.6206665,0,12.2269287,5.4849548,12.2269287,14.5761108v48.1181335H1000z"/>
	<g>
		<path fill="#FF4F12" d="M128.1457977,268.4191284H18.6233807c-7.9133472,0-12.5656757-7.0688171-12.5656757-13.247345
			c0-3.6581268,1.4828186-6.9699707,3.8801532-9.3673096l47.7966461-47.7966919L128.1457977,268.4191284z"/>
		<path fill="#7700FF" d="M18.6233807,268.4191284c-8.2701321,0-18.6076374-6.6150818-18.6076374-19.7608337V101.4179611
			c0-19.8950043-1.0121309-33.8917084,13.194315-48.098156L66.5226135,0l94.5432129,94.6936188L9.9378586,245.8044739
			c-2.3973346,2.3973389-3.8801532,5.7091827-3.8801532,9.3673096
			C6.0577054,261.3503113,10.7100334,268.4191284,18.6233807,268.4191284z"/>
	</g>
</g>
</svg>
