<?xml version="1.0" encoding="UTF-8"?>
<svg version="1.1" viewBox="0 0 158.1 87.48" xmlns="http://www.w3.org/2000/svg">
 <defs>
  <style>.a,.d{fill:#b88a57;}.b{fill:#00649d;}.b,.c,.d,.e{fill-rule:evenodd;}.c{fill:#a97654;}.e{fill:#007eaf;}</style>
 </defs>
 <path class="a" d="m24.43 14.53c14-7.64 33.26-12.36 54.61-12.36s40.65 4.72 54.61 12.36c13.76 7.53 22.27 17.86 22.27 29.21s-8.51 21.68-22.27 29.21c-14 7.64-33.26 12.36-54.61 12.36s-40.65-4.72-54.61-12.36c-13.76-7.53-22.27-17.86-22.27-29.21s8.51-21.68 22.27-29.21m54.61-14.53c-21.7 0-41.37 4.83-55.64 12.63-14.45 7.91-23.36 18.91-23.36 31.11s8.94 23.2 23.4 31.11c14.26 7.8 33.94 12.63 55.64 12.63s41.37-4.83 55.64-12.63c14.41-7.91 23.32-18.91 23.32-31.11s-8.94-23.2-23.4-31.11c-14.26-7.8-33.94-12.63-55.64-12.63"/>
 <path class="b" d="m22.8 43.67 1.94-5.44h2.51l-3 8.19a9.24 9.24 0 01-1.43 2.75 2.55 2.55 0 01-2.18.9 5.09 5.09 0 01-1.09-.21v-1.91a2.6 2.6 0 00.63.1 1.14 1.14 0 00.86-.31 3.26 3.26 0 00.58-1.15l-4.18-8.31h2.67zm8.7.39h1.12a2.38 2.38 0 001.56-.45 1.8 1.8 0 00.57-1.44q.08-2-2.14-2h-1.1zm0 2v3.76h-2.54v-11.59h3.56a6.94 6.94 0 013.8.87 3.34 3.34 0 011.29 3.11q0 3.82-4.71 3.82zm15-5.88h-4.46v9.64h-2.53v-11.59h7zm6.11 3.51 1.94-5.44h2.49l-3 8.19a9.27 9.27 0 01-1.43 2.75 2.55 2.55 0 01-2.18.9 5.07 5.07 0 01-1.09-.21v-1.91a2.59 2.59 0 00.63.1 1.14 1.14 0 00.89-.36 3.26 3.26 0 00.58-1.15l-4.18-8.31h2.67zm10.67-3.53v9.65h-2.53v-9.67h-2.95v-1.91h8.42v1.91zm7.17 4.34v5.31h-2.53v-11.58h2.53v4.32h4.21v-4.32h2.53v11.56h-2.53v-5.31zm16.59-4.34h-4.62v2.72h3.87v2h-3.87v3h5.2v1.88h-7.74v-11.53h7.16zm9.44.48v5.57a2.68 2.68 0 002.11-.54 3.08 3.08 0 00.66-2.26q0-2.93-2.77-2.77m-2.49 0q-2.64-.24-2.64 2.75a3.22 3.22 0 00.62 2.26 2.47 2.47 0 002 .54zm0 9.14v-1.7h-.37a7 7 0 01-2.17-.29 3.79 3.79 0 01-1.88-1.6 5.15 5.15 0 01-.73-2.79 6.11 6.11 0 01.39-2.09 3.83 3.83 0 011.54-1.85 5.32 5.32 0 013.22-.7v-1.36h2.49v1.34a5.57 5.57 0 013.31.7 3.8 3.8 0 011.56 1.85 6.11 6.11 0 01.39 2.09 5.16 5.16 0 01-.74 2.79 3.7 3.7 0 01-1.96 1.57 7.33 7.33 0 01-2.22.29h-.37v1.7zm14.27-9.65v9.65h-2.53v-9.64h-2.95v-1.91h8.42v1.91zm11.81 0h-4.62v2.72h3.87v2h-3.87v3h5.2v1.88h-7.74v-11.5h7.13zm9.48 0h-4.51v9.64h-2.53v-11.54h7zm4.94 5.28h2.8l-1.44-3.64zm-.75 2-.89 2.38h-2.54l4.36-11.56h2.37l4.44 11.56h-2.54l-1-2.43zm10.14-6.54-1.12-1.59a6.61 6.61 0 014.08-1.33 5.12 5.12 0 012.32.43 3.17 3.17 0 011.34 1.13 3.38 3.38 0 01.51 1.43 3.07 3.07 0 01-.13 1.17 2.18 2.18 0 01-.66 1 2.43 2.43 0 01-1.21.55v.18a2.63 2.63 0 011.67.76 2.4 2.4 0 01.7 1.8 3.2 3.2 0 01-.52 1.74 3.81 3.81 0 01-1.57 1.34 6.14 6.14 0 01-2.56.57 6.7 6.7 0 01-4.5-1.68l1.21-1.55a.28.28 0 01.14.06l.12.1.36.23.51.31a3.8 3.8 0 002.19.42 2.07 2.07 0 001.34-.66 1.59 1.59 0 00.43-1.21q0-1.31-1.77-1.31h-1.12v-1.94h.92a1.71 1.71 0 001.42-.48 1.28 1.28 0 00.27-1 1.36 1.36 0 00-.58-.93 2.21 2.21 0 00-1.33-.36 4.79 4.79 0 00-2.46.84m-127.6-1.3-1.25 1.51a3.36 3.36 0 00-2.69-1 3.13 3.13 0 00-1.11.4 2.81 2.81 0 00-1.06 1.21 4.91 4.91 0 00-.44 2.32 4.18 4.18 0 00.84 2.84 3.07 3.07 0 001.75 1 3.21 3.21 0 002.92-1.34l1.39 1.23a5.7 5.7 0 01-4.53 2.35 5.08 5.08 0 01-2.75-.76 5.24 5.24 0 01-1.91-2.16 6.68 6.68 0 01-.68-3.08 6 6 0 011.76-4.57 5.71 5.71 0 013.92-1.54 5.36 5.36 0 012.15.43 4.9 4.9 0 011.68 1.19"/>
 <path class="c" d="m120.4 54.74c-10.58 15.72-39.74 23.51-59.08 26.35-3.53-.44-4.58-.58-7.9-1.1 11.74-3.89 38.8-10.83 43.71-25.25zm-28.26-39.53c9.51 2.69 21.24 7.15 28.07 17.47h-27.92c-.38-.48-.77-1-1.17-1.44l-.44-.52-.91-1-.11-.13-.23-.26-.47-.51-.36-.38-.48-.5-.12-.2-.24-.25-.37-.37-.25-.24-.12-.12-.25-.24-.12-.12-.13-.12-.25-.24-.39-.36-1.65-1.5-.22-.19-.33-.3-.22-.19-.22-.18-.22-.19-.43-.37-.65-.54-.64-.51v-.1a70.44 70.44 0 0110.88-6.41"/>
 <path class="d" d="m123.3 54.74c-9.08 15.82-36.9 24.63-53.66 27.18 3.18.12 5.94.35 9.65.35 20.63 0 39.08-4.44 52.56-11.56 9-4.9 14.59-10.16 17.94-16zm-27.73-41.16c12.09 4.32 21.19 8.79 27.78 19.1l26.39-.08c-7.7-13.46-25.7-20.55-40.63-24.09-2.65.73-12.41 4.52-13.54 5.11"/>
 <path class="b" d="m37.65 54.74c5.47 7.91 14 13.09 24.25 16.16 1.74.52 4.65 1.08 6.38 1.41a71.37 71.37 0 0013.68-5.71l-2.63.12h-3.11a19.58 19.58 0 01-11.18-5.36 17.82 17.82 0 01-4.22-6.57zm59.16-48.39c-27.75 4-50.65 13.58-59 26.32h28l.09-.12.42-.54.1-.13.32-.4.55-.67.11-.13c.3-.35.6-.7.91-1l.11-.13.23-.26.47-.51.36-.38.48-.5.12-.12.24-.25.37-.37.25-.24.12-.12.25-.24.12-.12.13-.12.18-.17c1-1 2.13-2 3.25-2.94l.27-.22.21-.17.65-.54.64-.51c.67-.53 1.33-1 2-1.45a91.77 91.77 0 0126-12.82l-.31-.08c-2.1-.39-5.48-.73-7.67-1"/>
 <path class="e" d="m34.74 32.74c9.75-16.56 38.29-24.5 53.77-27.14-3.56-.28-6-.42-9.72-.42-20.63 0-39.28 4.44-52.75 11.56-7.92 4.48-14.21 9.93-17.75 16zm22 39c-9.39-3.83-16.79-8.19-22-16.91h-26.38c7.57 13.19 25.68 20.56 40.54 24.26 2.85-.77 12.54-3.95 15.48-5.16a43.8 43.8 0 01-7.59-2.19"/>
</svg>
