<?xml version="1.0" encoding="UTF-8" standalone="no"?>
<!-- Created with Inkscape (http://www.inkscape.org/) -->
<svg
   xmlns:dc="http://purl.org/dc/elements/1.1/"
   xmlns:cc="http://web.resource.org/cc/"
   xmlns:rdf="http://www.w3.org/1999/02/22-rdf-syntax-ns#"
   xmlns:svg="http://www.w3.org/2000/svg"
   xmlns="http://www.w3.org/2000/svg"
   xmlns:sodipodi="http://sodipodi.sourceforge.net/DTD/sodipodi-0.dtd"
   xmlns:inkscape="http://www.inkscape.org/namespaces/inkscape"
   id="svg2237"
   sodipodi:version="0.32"
   inkscape:version="0.45.1"
   width="776"
   height="661"
   version="1.0"
   sodipodi:docbase="C:\Documents and Settings\9999\Рабочий стол\википедия"
   sodipodi:docname="transneft_logo.svg"
   inkscape:output_extension="org.inkscape.output.svg.inkscape">
  <metadata
     id="metadata2242">
    <rdf:RDF>
      <cc:Work
         rdf:about="">
        <dc:format>image/svg+xml</dc:format>
        <dc:type
           rdf:resource="http://purl.org/dc/dcmitype/StillImage" />
      </cc:Work>
    </rdf:RDF>
  </metadata>
  <defs
     id="defs2240" />
  <sodipodi:namedview
     inkscape:window-height="778"
     inkscape:window-width="1152"
     inkscape:pageshadow="2"
     inkscape:pageopacity="0.0"
     guidetolerance="10.0"
     gridtolerance="10.0"
     objecttolerance="10.0"
     borderopacity="1.0"
     bordercolor="#666666"
     pagecolor="#ffffff"
     id="base"
     inkscape:zoom="0.57034796"
     inkscape:cx="388"
     inkscape:cy="330.5"
     inkscape:window-x="-4"
     inkscape:window-y="-4"
     inkscape:current-layer="svg2237" />
  <path
     style="fill:#00327e;fill-opacity:1"
     d="M 375.25019,657.01413 C 369.92889,656.68041 369.52769,656.48681 369.94359,654.45321 C 370.19099,653.24327 370.66989,647.47726 371.00779,641.63986 L 371.62209,631.0264 L 368.43939,630.38986 C 366.68889,630.03976 363.79039,629.75331 361.99829,629.75331 C 358.27779,629.75331 357.54289,631.24737 357.52029,638.85662 C 357.51279,641.38844 357.21839,646.21779 356.86609,649.5885 L 356.22549,655.71707 L 345.61609,655.10711 C 339.78089,654.77164 334.72199,654.21729 334.37409,653.87523 C 334.02619,653.53317 334.79119,637.95331 336.07409,619.25331 C 337.35699,600.55331 338.42909,584.69081 338.45659,584.00331 C 338.51349,582.58128 342.36879,582.42904 353.81699,583.39677 L 361.42899,584.04022 L 361.00009,588.14677 C 360.76419,590.40537 360.32109,595.96581 360.01549,600.50331 L 359.45979,608.75331 L 366.48319,608.75331 L 373.50659,608.75331 L 373.50659,604.40419 C 373.50659,602.01217 373.79799,596.60821 374.15409,592.39539 L 374.80159,584.73572 L 385.90409,585.38258 C 392.01049,585.73835 397.09189,586.09006 397.19609,586.16417 C 397.33729,586.26461 392.78639,656.14328 392.55009,657.50331 C 392.49999,657.79123 383.65179,657.54103 375.25019,657.01413 z M 435.03949,652.50331 C 434.81699,651.81581 431.17229,636.24127 426.93999,617.89322 C 421.87419,595.93197 419.60479,584.31068 420.29819,583.88211 C 422.14169,582.74276 467.60444,572.51785 468.19614,573.10952 C 469.01534,573.92874 472.53014,589.06304 472.01974,589.57346 C 471.78394,589.80932 465.83799,591.33026 458.80659,592.95334 C 451.77519,594.57641 445.87659,596.04996 445.69869,596.2279 C 445.29499,596.63163 447.44589,604.75331 447.95649,604.75331 C 448.50919,604.75331 469.73344,599.76188 471.66914,599.17666 C 473.02984,598.76531 473.68694,600.17961 475.28754,606.96366 C 476.36314,611.52297 477.09724,615.4211 476.91874,615.62617 C 476.74024,615.83124 471.13154,617.2617 464.45499,618.80496 C 457.77839,620.34823 452.16549,621.76116 451.98179,621.94482 C 451.79809,622.12847 452.08789,624.3419 452.62569,626.86354 L 453.60359,631.44834 L 461.30509,629.63595 C 465.54089,628.63914 471.77364,627.18326 475.15564,626.40067 L 481.30474,624.97777 L 483.31464,633.61554 C 484.42014,638.36631 485.25304,642.313 485.16564,642.38595 C 484.88954,642.61622 436.84529,653.75331 436.12799,653.75331 C 435.75169,653.75331 435.26189,653.19081 435.03949,652.50331 z M 287.03489,642.6972 C 272.05849,640.16227 261.41793,632.08811 257.45701,620.25331 C 254.04903,610.07062 257.06473,594.1353 264.5095,582.98708 C 274.46789,568.07483 291.36839,564.20786 308.98719,572.81021 C 319.62219,578.0027 319.31279,577.3077 315.51369,587.46986 C 313.70769,592.30076 312.11669,596.39138 311.97819,596.56013 C 311.83969,596.72888 309.61519,595.37888 307.03489,593.56013 C 303.01799,590.72875 301.50199,590.25331 296.49069,590.25331 C 291.36449,590.25331 290.24129,590.6257 287.44229,593.25331 C 280.67259,599.60853 277.99829,611.91198 282.17009,617.50892 C 285.17089,621.53485 289.70039,623.81461 295.98769,624.46351 C 300.50239,624.92947 301.45439,625.34079 301.03809,626.64551 C 298.56539,634.39357 294.50499,643.27992 293.38429,643.39602 C 292.62659,643.4745 289.76939,643.16004 287.03489,642.6972 z M 545.29024,610.28034 L 542.58844,605.80738 L 537.29754,608.27057 C 530.81454,611.28873 522.80364,611.53024 517.00654,608.8823 C 508.69964,605.08793 499.81064,592.13468 498.81004,582.366 C 497.94434,573.91449 499.84624,569.04002 506.50244,562.65024 L 512.33904,557.04717 L 509.82504,552.83134 C 508.44234,550.51263 507.46754,548.5024 507.65884,548.36416 C 507.85004,548.22592 512.21304,545.48896 517.35424,542.28204 C 524.86914,537.59448 526.88434,536.72596 527.63234,537.85229 C 528.14404,538.62285 529.32214,540.49081 530.25024,542.00331 C 532.25344,545.26775 532.50884,545.29928 537.29644,542.87315 C 547.12424,537.89278 557.31064,539.65266 565.38374,547.72573 C 572.51574,554.85772 575.93714,562.45746 575.97584,571.25331 C 576.00174,577.15528 575.56654,579.00192 573.20134,583.0257 C 571.65844,585.65052 568.62094,588.97282 566.45134,590.40859 C 564.28174,591.84436 562.52064,593.29678 562.53774,593.6362 C 562.55494,593.97561 563.67764,596.05331 565.03264,598.25331 C 566.38764,600.45331 567.49864,602.52925 567.50144,602.86651 C 567.50634,603.4465 549.36784,614.75331 548.43264,614.75331 C 548.19024,614.75331 546.77624,612.74048 545.29024,610.28034 z M 533.03194,588.95872 C 531.48454,584.92625 523.11824,572.71591 522.12784,573.04459 C 521.51114,573.24927 520.59284,574.58736 520.08704,576.01812 C 518.77224,579.73783 522.94944,587.68145 527.40284,589.93026 C 531.11164,591.80309 533.93634,591.31557 533.03194,588.95872 z M 554.44074,575.91223 C 555.39944,573.59767 555.30894,572.29973 553.95204,568.90851 C 551.35604,562.42054 544.06224,557.42725 542.01634,560.73748 C 541.37574,561.77409 551.29374,578.75331 552.53994,578.75331 C 552.93814,578.75331 553.79354,577.47483 554.44074,575.91223 z M 201.09659,601.17969 L 192.38156,594.60607 L 194.76269,591.42969 C 196.07232,589.68268 199.47546,585.1487 202.32523,581.35418 C 205.175,577.55966 207.50663,574.16821 207.50663,573.81763 C 207.50663,573.46706 205.30322,571.53522 202.61017,569.52468 L 197.71372,565.86913 L 190.36017,575.49845 C 186.31572,580.79457 182.5262,585.27865 181.93901,585.46308 C 181.35182,585.6475 176.95853,582.84698 172.17615,579.2397 L 163.4809,572.68101 L 184.88721,544.46716 C 197.5384,527.79269 206.9187,516.3048 207.8221,516.3792 C 210.51899,516.60132 225.60917,528.91604 224.6807,530.13709 C 215.73241,541.90513 211.51738,547.78792 211.56358,548.44427 C 211.5949,548.88924 213.76886,550.88792 216.39459,552.88578 L 221.16865,556.51826 L 228.12988,547.38578 C 231.99589,542.31395 235.78419,538.30402 236.64986,538.36736 C 238.75344,538.52128 253.5115,549.70255 253.48786,551.12447 C 253.46388,552.56629 211.67753,607.75331 210.6098,607.75331 C 210.1708,607.75331 205.88986,604.79518 201.09659,601.17969 z M 366.27209,563.64581 C 332.32739,561.03508 297.98319,550.45977 268.55286,533.55607 C 176.07067,480.43762 130.98258,374.05751 157.04375,270.46325 C 158.39833,265.07872 159.50663,260.46622 159.50663,260.21325 C 159.50663,259.96029 134.95131,259.75332 104.93924,259.75332 C 53.435753,259.75332 50.401523,259.65506 50.900083,258.00332 C 51.190593,257.04082 54.877023,242.41582 59.092143,225.50332 L 66.755993,194.75331 L 129.05515,194.75331 L 191.3543,194.75331 L 199.55179,184.1344 C 230.48522,144.06369 276.07299,114.02842 325.50659,101.14981 C 349.97379,94.775549 383.08779,92.180338 408.05439,94.680374 C 462.13049,100.09528 512.23024,123.66744 550.59874,161.74808 C 592.38104,203.21686 616.44514,256.45626 620.09574,315.50331 L 620.79124,326.75331 L 669.21624,326.75331 C 714.86144,326.75331 717.61234,326.85377 717.13544,328.50331 C 716.02494,332.34517 701.50654,389.63398 701.50654,390.17423 C 701.50654,390.49272 684.96904,390.75601 664.75654,390.7593 C 644.54404,390.7626 624.40654,391.05503 620.00654,391.40915 L 612.00654,392.053 L 607.70784,405.2177 C 599.70394,429.72912 583.46084,458.80857 566.35314,479.25331 C 524.55064,529.20969 466.71939,558.84802 401.50659,563.73647 C 386.51309,564.86041 381.91029,564.84857 366.27209,563.64581 z M 413.50659,550.29468 C 457.93969,544.28742 497.14504,526.67752 531.02134,497.51057 C 560.00334,472.55746 583.54614,437.9054 595.90944,402.00331 L 599.43924,391.75331 L 587.06034,391.75331 L 574.68144,391.75331 L 571.91694,399.00331 C 561.82644,425.46638 548.29974,446.69805 528.52504,467.11169 C 501.92674,494.56951 471.96534,512.27592 436.08819,521.73945 C 418.39509,526.40645 405.17909,528.03535 385.00659,528.03535 C 351.94719,528.03535 324.07739,521.56891 295.50419,507.26874 C 276.90729,497.96147 262.35564,487.50273 246.13634,471.78646 C 199.6666,426.75794 178.38153,363.22972 188.01874,298.32643 C 189.34066,289.42379 194.75918,267.2889 197.03287,261.50332 C 197.66554,259.89344 196.7221,259.75332 185.25012,259.75332 L 172.77963,259.75332 L 170.20825,269.00332 C 164.402,289.89011 162.1946,306.4941 162.19837,329.25331 C 162.20183,350.13725 164.00242,364.53201 169.13736,384.72685 C 191.4513,472.48387 267.46341,539.2495 358.00659,550.62116 C 369.41569,552.05406 401.90699,551.86293 413.50659,550.29468 z M 392.70739,509.64823 C 411.78619,505.66959 426.40249,490.37988 429.59249,471.06366 C 431.11079,461.86948 429.72569,453.66293 425.05439,444.17776 C 416.31919,426.44074 395.87749,415.52343 377.38909,418.72117 C 352.39529,423.04407 334.46739,447.12492 338.42079,471.06366 C 342.72309,497.1149 367.69539,514.86415 392.70739,509.64823 z M 375.50659,493.87691 C 366.87359,491.03854 360.67299,485.75053 356.27479,477.47551 C 353.14929,471.59514 353.07069,458.32796 356.12209,451.7025 C 359.18209,445.05832 363.88209,440.20736 370.32499,437.0434 C 375.10529,434.69592 377.27569,434.25331 384.00659,434.25331 C 390.75169,434.25331 392.90459,434.69426 397.73089,437.06426 C 419.79249,447.89784 420.01019,480.28987 398.09669,491.48126 C 394.24429,493.44869 391.18299,494.1559 385.50659,494.38981 C 381.38159,494.55979 376.88159,494.32899 375.50659,493.87691 z M 257.85961,366.00331 C 259.24554,360.09081 266.14559,330.3944 273.19309,300.0113 L 286.00659,244.7693 L 327.25659,244.76131 C 349.94409,244.75691 368.50659,244.9618 368.50659,245.21661 C 368.50659,245.47142 361.75659,274.6635 353.50659,310.08788 C 345.25659,345.51227 338.50659,375.00379 338.50659,375.62459 C 338.50659,376.43151 345.34369,376.75331 362.48759,376.75331 L 386.46849,376.75331 L 387.17809,374.00331 C 387.56839,372.49081 391.29889,356.62831 395.46819,338.75331 L 403.04879,306.25331 L 438.27769,305.99052 C 461.62609,305.81635 473.50654,306.07016 473.50654,306.74314 C 473.50654,307.50231 462.96559,353.5855 458.03979,374.36058 L 457.54019,376.46785 L 573.27334,375.98609 C 636.92664,375.72111 689.16244,375.36696 689.35294,375.19907 C 689.54354,375.03119 691.62964,367.21221 693.98894,357.82357 L 698.27844,340.75331 L 653.54894,340.75331 L 608.81954,340.75331 L 608.20544,324.41692 C 607.46624,304.75456 605.48444,290.669 600.98714,273.11365 C 582.33284,200.29576 526.50624,140.72756 454.80389,117.13271 C 390.59449,96.003587 320.38199,105.05155 264.21656,141.69283 C 239.11156,158.07086 218.86899,177.60223 201.89748,201.82239 L 196.34014,209.75332 L 137.46193,209.75332 L 78.583723,209.75332 L 77.597943,213.50332 C 77.055763,215.56582 75.063663,223.44082 73.171053,231.00332 L 69.729943,244.75332 L 153.68567,244.75332 C 233.18002,244.75332 237.61306,244.84631 237.10807,246.50332 C 236.81473,247.46582 230.50867,274.35332 223.0946,306.25331 C 215.68053,338.15331 208.95511,367.06581 208.14924,370.50331 L 206.68401,376.75331 L 231.01187,376.75331 L 255.33973,376.75331 L 257.85961,366.00331 z M 514.88014,339.00331 C 515.59544,336.54096 544.50654,211.88447 544.50654,211.26285 C 544.50654,206.98111 556.58344,225.52958 564.54334,242.03653 C 577.91054,269.75715 584.50654,298.77453 584.50654,329.85926 L 584.50654,340.75331 L 549.43914,340.75331 C 516.51474,340.75331 514.40284,340.64637 514.88014,339.00331 z M 411.50659,270.33911 C 411.50659,269.75959 424.49599,213.6454 425.12479,211.50814 C 425.61059,209.85727 420.22049,209.74918 325.39119,209.50814 L 225.14403,209.25332 L 232.81048,200.11595 C 281.44719,142.14776 360.05329,117.09606 434.50929,135.83473 C 474.79414,145.97343 511.11734,168.79136 538.08444,200.89986 C 541.61664,205.10546 544.50654,208.80996 544.50654,209.13209 C 544.50654,209.45421 533.63744,209.83826 520.35294,209.98554 L 496.19934,210.25332 L 489.16984,240.50332 L 482.14024,270.75332 L 446.82349,270.75332 C 427.39919,270.75332 411.50659,270.56693 411.50659,270.33911 z M 612.27154,530.23122 C 601.96734,521.71837 593.19234,514.76722 592.77154,514.78423 C 592.35084,514.80124 590.54024,516.71374 588.74794,519.03423 C 586.95574,521.35472 584.40644,524.56279 583.08284,526.16327 L 580.67634,529.07324 L 572.34144,522.24726 C 567.75724,518.49297 563.84544,515.29733 563.64844,515.14583 C 563.35314,514.91869 596.87174,473.49532 601.12374,468.83268 C 602.22374,467.62646 603.59554,468.36942 610.21294,473.7554 C 614.49944,477.24424 618.40434,480.44125 618.89044,480.85987 C 619.37654,481.27849 617.59614,484.23827 614.93394,487.43715 C 612.27174,490.63604 609.50414,493.9719 608.78374,494.85017 C 607.63684,496.24822 609.83574,498.36472 626.44584,511.85017 C 636.88044,520.3219 645.43784,527.64835 645.46224,528.13118 C 645.49964,528.87231 631.79184,545.79591 631.20644,545.73122 C 631.09654,545.71907 622.57584,538.74407 612.27154,530.23122 z M 129.02354,535.24067 L 122.39127,525.72804 L 127.54201,519.8061 L 132.69275,513.88417 L 129.44623,509.06874 C 123.49165,500.23656 124.23328,500.56943 116.76922,503.37889 C 113.15754,504.73833 109.66072,505.64268 108.99852,505.38857 C 107.68716,504.88535 96.506633,489.32758 96.506633,488.00604 C 96.506633,486.67322 165.86299,462.80418 166.9982,463.74631 C 167.56197,464.2142 171.55704,469.77059 175.87612,476.09383 L 183.72899,487.59063 L 160.46818,516.17197 C 147.67474,531.89171 136.85827,544.75331 136.43159,544.75331 C 136.00491,544.75331 132.67128,540.47262 129.02354,535.24067 z M 156.52811,488.61501 L 158.48374,485.97672 L 150.24518,488.98763 C 145.71398,490.64364 141.6172,492.35531 141.14122,492.79134 C 140.66524,493.22738 141.54909,495.25349 143.10533,497.29382 L 145.93485,501.00352 L 150.25367,496.12841 C 152.62902,493.44711 155.45252,490.06608 156.52811,488.61501 z M 645.10454,465.18348 C 627.00844,457.81303 612.06234,451.64238 611.89084,451.47092 C 611.58694,451.16699 619.36534,431.65738 620.11474,430.84398 C 620.41314,430.52017 628.44984,433.44958 638.06114,437.38546 C 638.64114,437.62298 640.60324,434.21457 642.42124,429.81121 C 646.28234,420.45928 652.05504,414.30384 658.01244,413.18623 C 677.08514,409.60817 695.34874,423.29627 693.12724,439.50384 C 692.64424,443.02805 681.39394,472.59132 678.76774,477.23771 C 678.17844,478.28018 670.57574,475.55775 645.10454,465.18348 z M 671.54004,448.69076 C 674.33594,443.46661 672.19524,437.88623 666.65434,435.95465 C 662.05344,434.35079 657.90724,437.22761 656.11914,443.26433 C 655.60884,444.98712 656.48964,445.65886 662.26504,447.95131 C 670.52724,451.2309 670.19474,451.2044 671.54004,448.69076 z M 105.52461,439.73919 C 103.05951,438.58647 100.19837,436.88058 99.166533,435.94832 C 96.631643,433.65807 93.119093,426.49119 91.106683,419.50331 C 90.195933,416.34081 89.328623,413.75331 89.179343,413.75331 C 89.030063,413.75331 84.670983,415.08166 79.492503,416.7052 C 74.314023,418.32874 69.993053,419.56624 69.890333,419.4552 C 68.779993,418.25482 63.512223,398.36622 64.149983,397.78234 C 65.135783,396.87984 131.57601,376.47827 132.00988,376.94485 C 132.16764,377.1145 134.68326,384.90331 137.60014,394.25331 C 145.08978,418.26113 144.85966,425.24644 136.29705,433.80904 C 129.05871,441.04739 114.374,443.87727 105.52461,439.73919 z M 120.99133,416.58669 C 123.52229,414.59583 123.698,414.01695 123.15724,409.45107 C 122.83356,406.71813 122.33622,404.24957 122.05204,403.96539 C 121.46142,403.37477 109.66574,406.4189 107.6015,407.69468 C 106.50631,408.37154 106.46324,409.19008 107.38386,411.83099 C 108.01513,413.64184 109.27074,415.94016 110.17411,416.93838 C 112.41062,419.40969 117.61768,419.2404 120.99133,416.58669 z M 107.50663,348.25331 L 107.50663,338.75331 L 82.506633,338.75331 L 57.506633,338.75331 L 57.506633,327.15214 L 57.506633,315.55096 L 82.506893,315.90214 L 107.50714,316.25331 L 107.50688,306.46948 L 107.50663,296.68565 L 118.25663,296.96948 L 129.00663,297.25331 L 129.27129,327.50331 L 129.53596,357.75331 L 118.52129,357.75331 L 107.50663,357.75331 L 107.50663,348.25331 z M 686.50464,300.74017 C 685.79094,295.76046 684.85084,291.46605 684.41554,291.19704 C 683.98024,290.92802 672.93124,292.50171 659.86214,294.69412 C 646.79314,296.88653 635.94924,298.52927 635.76454,298.34466 C 635.41284,297.9929 631.59494,276.32213 631.85624,276.16002 C 631.93894,276.1087 642.80654,274.29181 656.00654,272.12248 L 680.00654,268.17824 L 679.93394,264.71578 C 679.89394,262.81143 679.50704,258.51799 679.07414,255.17481 L 678.28704,249.09631 L 688.53334,247.39464 C 694.16874,246.45872 699.01504,245.92847 699.30284,246.2163 C 699.59074,246.50414 702.02064,259.86855 704.70274,275.91499 C 708.04414,295.9058 709.24084,305.29949 708.50424,305.75472 C 707.91304,306.12013 703.73414,306.96786 699.21794,307.63856 C 694.70164,308.30926 690.28564,309.06865 689.40454,309.3261 C 688.08014,309.71304 687.57744,308.22474 686.50464,300.74017 z M 640.81714,221.16725 C 637.66174,214.60521 634.78154,209.82043 634.13804,210.0712 C 633.51574,210.31368 628.38704,212.65936 622.74104,215.28382 C 617.09494,217.90827 612.30644,219.87505 612.09994,219.65444 C 611.41764,218.92579 602.48804,199.437 602.75004,199.24849 C 604.29674,198.13556 667.63974,168.57622 667.86254,168.86342 C 668.02884,169.07786 672.81894,179.10299 678.50704,191.14148 C 688.07274,211.38657 688.71704,213.12628 687.08894,214.31678 C 684.84064,215.96076 672.56854,221.19503 672.22084,220.6583 C 672.07654,220.43556 669.45844,215.04555 666.40294,208.68048 L 660.84734,197.10765 L 656.67694,199.12749 C 654.38324,200.23841 652.50654,201.5722 652.50654,202.09148 C 652.50654,202.61075 654.82844,207.92523 657.66624,213.90143 C 660.50414,219.87761 662.64164,224.95009 662.41624,225.1736 C 662.19094,225.39711 658.48714,227.18293 654.18564,229.14209 L 646.36474,232.70419 L 640.81714,221.16725 z M 156.00663,172.20744 C 145.55663,164.28192 136.78163,157.80008 136.50663,157.80334 C 136.23163,157.80661 133.57019,161.15255 130.59233,165.23877 C 127.53496,169.43408 124.7054,172.39001 124.09233,172.02906 C 118.56361,168.77409 107.59018,159.41586 108.16041,158.4422 C 109.94619,155.39298 143.53813,110.75331 144.04693,110.75331 C 144.4753,110.75331 155.62818,118.87977 161.39733,123.39556 C 161.61222,123.56376 159.2114,127.12475 156.06219,131.30887 C 152.91297,135.49298 150.48715,139.03754 150.67148,139.18567 C 150.85581,139.3338 159.55663,145.84857 170.00663,153.66294 C 180.45663,161.4773 189.15752,168.29709 189.34194,168.81802 C 189.79116,170.08694 177.37974,186.77182 176.05088,186.6854 C 175.47654,186.64804 166.45663,180.13296 156.00663,172.20744 z M 576.59944,165.58793 C 564.79704,151.83913 560.44694,146.10416 561.09944,145.15364 C 561.59834,144.42688 573.81924,133.67408 588.25704,121.25852 L 614.50754,98.684787 L 617.37544,101.96906 C 618.95274,103.77539 626.40954,112.45331 633.94604,121.25331 L 647.64864,137.25331 L 641.32764,142.97006 C 637.85104,146.11427 634.70664,148.70177 634.33994,148.72006 C 633.97334,148.73835 629.66694,144.09328 624.77014,138.39769 L 615.86704,128.04208 L 612.61844,130.94465 L 609.36994,133.84722 L 616.68824,142.3688 C 627.70844,155.20096 627.33894,153.52264 620.40864,159.26355 C 617.09574,162.00792 614.00264,164.38993 613.53504,164.55691 C 613.06754,164.7239 608.97894,160.5614 604.44934,155.30691 C 599.91974,150.05243 596.00154,145.75331 595.74214,145.75331 C 595.48284,145.75331 593.75214,147.08655 591.89624,148.71607 L 588.52184,151.67882 L 597.49154,161.96607 C 602.42484,167.62405 606.47144,172.53586 606.48394,172.88119 C 606.50644,173.50617 594.01284,184.77706 593.35284,184.72708 C 593.16244,184.71266 585.62334,176.10004 576.59944,165.58793 z M 191.63024,115.1148 C 180.42323,99.928153 171.0919,86.771594 170.89394,85.878014 C 170.64472,84.752974 175.1643,80.870384 185.58988,73.253314 C 204.06361,59.756164 206.60006,58.380024 213.00663,58.378364 C 219.30979,58.376734 223.70758,60.667574 227.5293,65.943314 C 232.26197,72.476574 233.42003,79.603504 230.84101,86.324334 C 230.43444,87.383824 231.16067,87.764153 233.64964,87.795231 C 235.49599,87.818284 238.406,88.605784 240.11634,89.545231 C 243.53524,91.42315 261.15521,107.48101 260.44784,108.07423 C 260.20517,108.27774 255.78834,111.51574 250.63264,115.26978 L 241.25865,122.09532 L 233.60807,113.92432 C 225.30188,105.05311 223.30399,104.23678 219.11697,108.00331 L 216.61578,110.25331 L 223.56121,119.50199 C 227.38119,124.58876 230.48773,129.08876 230.46462,129.50199 C 230.41461,130.39662 213.90108,142.75918 212.78155,142.7401 C 212.35535,142.73284 202.83726,130.30145 191.63024,115.1148 z M 209.97183,93.649723 C 214.04076,90.077155 214.44793,87.219704 211.43405,83.388174 C 208.83209,80.080314 206.00073,80.053524 201.23534,83.291694 L 197.49979,85.830064 L 201.62335,91.291691 C 203.89132,94.295584 205.9022,96.753315 206.09198,96.753315 C 206.28176,96.753315 208.0277,95.356699 209.97183,93.649723 z M 532.74974,124.50331 C 525.51064,119.96581 519.56954,115.71503 519.54714,115.05713 C 519.52484,114.39923 522.87924,104.75939 527.00134,93.635264 C 531.12354,82.511134 534.38604,73.316304 534.25134,73.202314 C 534.11674,73.088314 528.83154,81.246964 522.50654,91.332648 C 516.18154,101.41833 510.70084,109.68894 510.32714,109.71178 C 508.46304,109.82573 493.61784,99.379206 494.22124,98.378097 C 495.85254,95.6716 531.77274,39.216454 532.07404,38.885504 C 532.31414,38.621734 557.67284,54.242054 560.28704,56.264044 C 560.44134,56.383374 557.17884,65.625934 553.03704,76.803074 C 548.89534,87.98021 545.50654,97.344904 545.50654,97.613503 C 545.50654,97.882102 550.71954,89.920342 557.09094,79.920704 C 564.55964,68.198824 569.08944,61.987274 569.84094,62.436834 C 571.80414,63.611234 584.98704,71.985634 585.30694,72.261564 C 585.79344,72.681264 547.35574,132.75331 546.60064,132.75331 C 546.22174,132.75331 539.98884,129.04081 532.74974,124.50331 z M 269.08665,99.503315 C 268.1536,94.920359 264.65916,28.230704 265.32049,27.627974 C 266.03484,26.976924 291.46459,18.290254 292.72499,18.266724 C 293.42759,18.253614 334.32879,76.126224 335.17449,78.330094 C 335.55539,79.322884 316.69939,86.753314 313.79909,86.753314 C 313.20289,86.753314 311.20569,84.429924 309.36089,81.590234 C 307.51599,78.750534 305.70009,75.961594 305.32549,75.392584 C 304.87829,74.713484 302.01859,75.181474 297.00229,76.754684 L 289.36029,79.151344 L 290.03129,87.207594 L 290.70239,95.263841 L 280.80319,98.508578 C 275.35859,100.29318 270.59814,101.75332 270.22435,101.75332 C 269.85056,101.75332 269.3386,100.74082 269.08665,99.503315 z M 291.60739,59.604854 C 293.47699,58.973204 295.18309,58.309234 295.39879,58.129364 C 295.80119,57.793784 285.52919,41.753314 284.91189,41.753314 C 284.49039,41.753314 285.52569,57.768744 286.05929,59.503314 C 286.53379,61.045604 287.30149,61.059654 291.60739,59.604854 z M 455.00659,88.073692 C 447.27149,86.342504 434.60709,81.286044 429.79259,78.006644 C 428.86509,77.374944 429.15339,75.089814 431.01359,68.328794 C 432.35289,63.460804 433.65719,59.269424 433.91199,59.014624 C 434.16679,58.759814 435.88629,59.703864 437.73309,61.112514 C 441.77969,64.198954 450.77439,68.303934 455.27749,69.119364 C 457.80329,69.576744 459.03579,69.224124 460.68879,67.571194 L 462.82919,65.430734 L 459.80609,62.842024 C 458.14329,61.418234 454.24619,58.703124 451.14569,56.808454 C 448.04529,54.913774 444.27059,51.576674 442.75759,49.392654 C 440.37319,45.950864 440.01249,44.477734 440.05069,38.337524 C 440.16319,20.259584 453.59399,11.407474 473.73654,16.135524 C 481.00524,17.841704 493.50654,23.106014 493.50654,24.460704 C 493.50654,25.258394 489.89304,38.957254 489.02264,41.459404 C 488.74374,42.260964 486.70364,41.521744 482.94014,39.255454 C 477.04094,35.703174 467.82744,33.032484 465.09249,34.082004 C 464.22029,34.416704 463.50659,35.583664 463.50659,36.675244 C 463.50659,38.752984 463.99929,39.172004 474.49364,46.020154 C 485.31414,53.081064 488.08854,61.777504 483.46384,74.138084 C 479.26014,85.373294 467.86784,90.952169 455.00659,88.073692 z M 348.16439,59.593004 C 347.80259,49.604844 347.50659,33.404844 347.50659,23.593004 L 347.50659,5.7533103 L 357.85989,5.7533103 C 363.55429,5.7533103 370.92199,5.4701903 374.23269,5.1241603 L 380.25209,4.4950003 L 383.97459,20.374164 C 386.02199,29.107694 388.44259,39.295624 389.35389,43.013994 L 391.01059,49.774674 L 390.65009,27.263994 L 390.28959,4.7533103 L 399.87909,4.7533103 C 409.02189,4.7533103 409.48979,4.8581103 409.92469,7.0033103 C 410.17549,8.2408103 410.61679,24.451614 410.90539,43.027324 L 411.42989,76.801324 L 394.78979,76.527324 L 378.14959,76.253314 L 373.31979,55.753314 C 370.66329,44.478314 368.26689,34.803314 367.99439,34.253314 C 367.72179,33.703314 367.68329,43.265814 367.90869,55.503314 L 368.31859,77.753314 L 358.57039,77.753314 L 348.82219,77.753314 L 348.16439,59.593004 z "
     id="path2246" />
</svg>
