<svg version="1.1" id="svg-logo" x="0px" y="0px" xml:space="preserve" sodipodi:docname="markup-cropped(1).svg" inkscape:version="1.3 (0e150ed6c4, 2023-07-21)" xmlns:inkscape="http://www.inkscape.org/namespaces/inkscape" xmlns:sodipodi="http://sodipodi.sourceforge.net/DTD/sodipodi-0.dtd" xmlns="http://www.w3.org/2000/svg" xmlns:svg="http://www.w3.org/2000/svg" viewBox="0 0 55 33.1"><defs id="defs6"/><sodipodi:namedview id="namedview6" pagecolor="#ffffff" bordercolor="#000000" borderopacity="0.25" inkscape:showpageshadow="2" inkscape:pageopacity="0.0" inkscape:pagecheckerboard="0" inkscape:deskcolor="#d1d1d1" inkscape:zoom="13.745455" inkscape:cx="27.572751" inkscape:cy="16.696429" inkscape:window-width="1920" inkscape:window-height="1001" inkscape:window-x="-9" inkscape:window-y="-9" inkscape:window-maximized="1" inkscape:current-layer="svg-logo"/> 					<g id="g6" style="fill: rgb(0, 120, 220); fill-opacity: 1; --darkreader-inline-fill: #48b0ff;" data-darkreader-inline-fill=""> 						<path class="logo-color" d="M 37.7,8 V 0.3 H 33.6 V 8 c 0,3.9 1.9,5.7 5.8,5.7 h 6.2 V 0.3 h -4.1 v 9.8 h -1.8 c -1.3,0 -2,-0.4 -2,-2.1 z" id="path1" style="fill: rgb(0, 120, 220); fill-opacity: 1; --darkreader-inline-fill: #48b0ff;" data-darkreader-inline-fill=""/> 						<path class="logo-color" d="m 22.5,20.7 v 7.7 h 4.1 V 20.7 C 26.6,16.8 24.7,15 20.8,15 h -6.2 v 13.4 h 4.1 v -9.8 h 1.8 c 1.3,0 2,0.5 2,2.1 z" id="path2" style="fill: rgb(0, 120, 220); fill-opacity: 1; --darkreader-inline-fill: #48b0ff;" data-darkreader-inline-fill=""/> 						<path class="logo-color" d="M 28,5.1 H 24.1 V 0.3 H 20 v 13.4 h 4.2 V 8.6 H 28 v 5.1 h 4.2 V 0.3 H 28 Z" id="path3" style="fill: rgb(0, 120, 220); fill-opacity: 1; --darkreader-inline-fill: #48b0ff;" data-darkreader-inline-fill=""/> 						<path class="logo-color" d="m 48.3,14.7 c -4.6,0 -6.7,3 -6.7,7 0,4.1 2.1,7 6.7,7 4.6,0 6.7,-3 6.7,-7 0,-4 -2.1,-7 -6.7,-7 z m 0,10.7 c -1.9,0 -2.5,-1.5 -2.5,-3.6 0,-2.1 0.7,-3.6 2.5,-3.6 1.9,0 2.5,1.5 2.5,3.6 0,2 -0.6,3.6 -2.5,3.6 z" id="path4" style="fill: rgb(0, 120, 220); fill-opacity: 1; --darkreader-inline-fill: #48b0ff;" data-darkreader-inline-fill=""/> 						<path class="logo-color" d="M 12.2,0 C 8.4,0 6.4,2.1 5.9,5.1 H 4.2 V 0.3 H 0 V 13.8 H 4.2 V 8.6 H 5.9 C 6.4,11.8 8.4,14 12.3,14 16.9,14 19,11 19,7 18.9,3 16.8,0 12.2,0 Z m 0,10.7 c -1.9,0 -2.5,-1.5 -2.5,-3.6 0,-2.1 0.6,-3.6 2.5,-3.6 1.9,0 2.5,1.5 2.5,3.6 0,2 -0.6,3.5 -2.5,3.6 z" id="path5" style="fill: rgb(0, 120, 220); fill-opacity: 1; --darkreader-inline-fill: #48b0ff;" data-darkreader-inline-fill=""/> 						<path class="logo-color" d="m 32.2,28.5 h 1.6 c 4.5,0 7,-2.2 7,-6.7 0,-4.5 -2.5,-6.7 -7,-6.7 H 28 v 18 h 4.1 v -4.6 z m 0,-3.7 v -6.2 h 1.4 c 1.9,0 3,0.7 3,3.1 0,2.3 -1.1,3.1 -3,3.1 z" id="path6" style="fill: rgb(0, 120, 220); fill-opacity: 1; --darkreader-inline-fill: #48b0ff;" data-darkreader-inline-fill=""/> 					</g> 				</svg>